<svg xmlns="http://www.w3.org/2000/svg" viewBox="0 0 200 200" width="200" height="200">
  <!-- Background -->
  <rect width="200" height="200" fill="#ffffff" rx="8"/>

  <!-- Top-left finder pattern -->
  <rect x="12" y="12" width="52" height="52" fill="none" stroke="#0070E0" stroke-width="6" rx="4"/>
  <rect x="24" y="24" width="28" height="28" fill="#0070E0" rx="2"/>

  <!-- Top-right finder pattern -->
  <rect x="136" y="12" width="52" height="52" fill="none" stroke="#0070E0" stroke-width="6" rx="4"/>
  <rect x="148" y="24" width="28" height="28" fill="#0070E0" rx="2"/>

  <!-- Bottom-left finder pattern -->
  <rect x="12" y="136" width="52" height="52" fill="none" stroke="#0070E0" stroke-width="6" rx="4"/>
  <rect x="24" y="148" width="28" height="28" fill="#0070E0" rx="2"/>

  <!-- Timing pattern dots (horizontal) -->
  <rect x="72" y="76" width="6" height="6" fill="#0070E0" rx="1"/>
  <rect x="84" y="76" width="6" height="6" fill="#0070E0" rx="1"/>
  <rect x="96" y="76" width="6" height="6" fill="#0070E0" rx="1"/>
  <rect x="108" y="76" width="6" height="6" fill="#0070E0" rx="1"/>
  <rect x="120" y="76" width="6" height="6" fill="#0070E0" rx="1"/>

  <!-- Timing pattern dots (vertical) -->
  <rect x="76" y="72" width="6" height="6" fill="#0070E0" rx="1"/>
  <rect x="76" y="84" width="6" height="6" fill="#0070E0" rx="1"/>
  <rect x="76" y="96" width="6" height="6" fill="#0070E0" rx="1"/>
  <rect x="76" y="108" width="6" height="6" fill="#0070E0" rx="1"/>
  <rect x="76" y="120" width="6" height="6" fill="#0070E0" rx="1"/>

  <!-- Random data dots to mimic QR data area -->
  <rect x="96" y="92" width="6" height="6" fill="#0070E0" rx="1"/>
  <rect x="108" y="92" width="6" height="6" fill="#0070E0" rx="1"/>
  <rect x="120" y="92" width="6" height="6" fill="#0070E0" rx="1"/>
  <rect x="132" y="92" width="6" height="6" fill="#0070E0" rx="1"/>
  <rect x="144" y="92" width="6" height="6" fill="#0070E0" rx="1"/>
  <rect x="96" y="104" width="6" height="6" fill="#0070E0" rx="1"/>
  <rect x="120" y="104" width="6" height="6" fill="#0070E0" rx="1"/>
  <rect x="144" y="104" width="6" height="6" fill="#0070E0" rx="1"/>
  <rect x="108" y="116" width="6" height="6" fill="#0070E0" rx="1"/>
  <rect x="120" y="116" width="6" height="6" fill="#0070E0" rx="1"/>
  <rect x="132" y="116" width="6" height="6" fill="#0070E0" rx="1"/>
  <rect x="96" y="128" width="6" height="6" fill="#0070E0" rx="1"/>
  <rect x="108" y="128" width="6" height="6" fill="#0070E0" rx="1"/>
  <rect x="144" y="128" width="6" height="6" fill="#0070E0" rx="1"/>
  <rect x="120" y="140" width="6" height="6" fill="#0070E0" rx="1"/>
  <rect x="132" y="140" width="6" height="6" fill="#0070E0" rx="1"/>
  <rect x="144" y="140" width="6" height="6" fill="#0070E0" rx="1"/>
  <rect x="96" y="152" width="6" height="6" fill="#0070E0" rx="1"/>
  <rect x="120" y="152" width="6" height="6" fill="#0070E0" rx="1"/>
  <rect x="132" y="152" width="6" height="6" fill="#0070E0" rx="1"/>
  <rect x="12" y="92" width="6" height="6" fill="#0070E0" rx="1"/>
  <rect x="24" y="92" width="6" height="6" fill="#0070E0" rx="1"/>
  <rect x="36" y="104" width="6" height="6" fill="#0070E0" rx="1"/>
  <rect x="48" y="104" width="6" height="6" fill="#0070E0" rx="1"/>
  <rect x="60" y="92" width="6" height="6" fill="#0070E0" rx="1"/>
  <rect x="12" y="116" width="6" height="6" fill="#0070E0" rx="1"/>
  <rect x="48" y="116" width="6" height="6" fill="#0070E0" rx="1"/>
  <rect x="60" y="116" width="6" height="6" fill="#0070E0" rx="1"/>
  <rect x="24" y="128" width="6" height="6" fill="#0070E0" rx="1"/>
  <rect x="60" y="128" width="6" height="6" fill="#0070E0" rx="1"/>
  <rect x="36" y="152" width="6" height="6" fill="#0070E0" rx="1"/>
  <rect x="60" y="152" width="6" height="6" fill="#0070E0" rx="1"/>
  <rect x="12" y="164" width="6" height="6" fill="#0070E0" rx="1"/>
  <rect x="48" y="164" width="6" height="6" fill="#0070E0" rx="1"/>

  <!-- GCash label at bottom -->
  <rect x="0" y="172" width="200" height="28" fill="#0070E0" rx="0"/>
  <rect x="0" y="164" width="200" height="12" fill="#0070E0" rx="0"/>
  <rect x="0" y="192" width="200" height="8" fill="#0070E0" rx="0"/>
  <rect x="0" y="172" width="200" height="28" fill="#0070E0"/>
  <!-- White rounded bottom -->
  <rect x="0" y="180" width="200" height="20" fill="#0070E0" rx="0"/>
  <rect x="0" y="192" width="200" height="8" fill="#0070E0" rx="8"/>

  <!-- Bottom blue band -->
  <rect x="0" y="168" width="200" height="32" fill="#0070E0" rx="0"/>
  <rect x="0" y="160" width="200" height="40" fill="#0070E0" rx="8"/>
  <rect x="0" y="160" width="200" height="12" fill="#ffffff"/>

  <!-- Clean bottom blue bar -->
  <rect x="0" y="168" width="200" height="32" fill="#0070E0"/>
  <text x="100" y="189" font-family="Arial, sans-serif" font-size="13" font-weight="bold" fill="#ffffff" text-anchor="middle" letter-spacing="1">GCash</text>
  <text x="100" y="198" font-family="Arial, sans-serif" font-size="7.5" fill="rgba(255,255,255,0.8)" text-anchor="middle" letter-spacing="0.5">SAMPLE — FOR REFERENCE ONLY</text>
</svg>
